<?xml version="1.0" standalone="no"?>
<!DOCTYPE svg PUBLIC "-//W3C//DTD SVG 20010904//EN"
 "http://www.w3.org/TR/2001/REC-SVG-20010904/DTD/svg10.dtd">
<svg version="1.0" xmlns="http://www.w3.org/2000/svg"
 width="512.000000pt" height="512.000000pt" viewBox="0 0 512.000000 512.000000"
 preserveAspectRatio="xMidYMid meet">

<g transform="translate(0.000000,512.000000) scale(0.100000,-0.100000)"
fill="#000000" stroke="none">
<path d="M252 4848 c-15 -15 -15 -61 0 -76 8 -8 66 -12 195 -12 l183 0 0 -184
0 -184 -52 -12 c-102 -21 -191 -97 -222 -188 -9 -25 -16 -75 -16 -111 0 -109
26 -151 208 -334 l157 -157 212 212 213 213 -153 153 c-83 84 -171 165 -194
179 l-43 25 0 194 0 194 895 0 895 0 0 -409 0 -409 -26 -16 c-35 -23 -97 -123
-128 -204 -29 -77 -66 -209 -60 -214 2 -2 34 -1 71 3 87 10 309 10 396 0 37
-4 69 -5 71 -3 6 5 -31 137 -60 214 -31 81 -93 181 -128 204 l-26 16 0 409 0
409 895 0 895 0 0 -194 0 -194 -42 -25 c-24 -14 -112 -95 -195 -179 l-153
-153 213 -213 212 -212 157 157 c182 183 208 225 208 334 0 36 -7 86 -16 111
-31 91 -120 167 -222 188 l-52 12 0 184 0 184 183 0 c129 0 187 4 195 12 15
15 15 61 0 76 -17 17 -4649 17 -4666 0z"/>
<path d="M1744 4501 c-56 -24 -72 -109 -30 -158 20 -23 32 -28 71 -28 60 0 95
35 95 95 0 70 -72 118 -136 91z"/>
<path d="M3344 4501 c-56 -24 -72 -109 -30 -158 20 -23 32 -28 71 -28 60 0 95
35 95 95 0 70 -72 118 -136 91z"/>
<path d="M1275 4009 c-32 -18 -545 -531 -561 -561 -44 -83 10 -197 101 -214
76 -14 84 -7 373 280 151 149 280 283 288 298 29 56 13 127 -40 177 -20 19
-40 26 -84 28 -31 2 -66 -2 -77 -8z"/>
<path d="M3752 4000 c-64 -39 -91 -125 -58 -188 8 -15 137 -149 288 -299 232
-231 278 -272 310 -278 98 -18 178 47 178 145 0 23 -6 53 -14 68 -18 32 -532
545 -563 561 -35 18 -104 13 -141 -9z"/>
<path d="M2301 3910 c-217 -78 -396 -243 -491 -454 -15 -34 -32 -77 -38 -97
l-10 -37 57 34 c81 48 208 93 362 128 22 5 28 14 38 63 25 110 63 218 106 301
24 45 41 82 37 82 -4 -1 -31 -10 -61 -20z"/>
<path d="M2845 3848 c43 -83 81 -191 106 -301 10 -49 16 -58 38 -63 152 -34
261 -72 350 -121 l64 -36 -7 34 c-10 54 -80 189 -134 260 -94 124 -225 223
-374 282 -36 15 -71 27 -77 27 -5 0 10 -37 34 -82z"/>
<path d="M2372 3410 c-40 -4 -76 -11 -80 -14 -9 -10 -15 -394 -7 -489 6 -82 8
-85 33 -91 97 -21 537 -14 560 9 9 9 15 395 7 488 -6 82 -8 85 -33 91 -46 10
-404 15 -480 6z"/>
<path d="M2096 3360 c-212 -57 -356 -157 -356 -247 0 -74 54 -128 192 -193 63
-29 221 -80 250 -80 1 0 3 122 3 270 0 174 -4 270 -10 269 -5 0 -41 -9 -79
-19z"/>
<path d="M2985 3110 c0 -148 3 -270 6 -270 3 0 41 9 85 21 95 25 230 86 285
130 92 73 93 165 2 237 -74 58 -224 121 -348 146 l-30 6 0 -270z"/>
<path d="M3844 2901 c-56 -24 -72 -109 -30 -158 20 -23 32 -28 71 -28 60 0 95
35 95 95 0 70 -72 118 -136 91z"/>
<path d="M1772 2861 c43 -155 173 -337 314 -437 62 -45 206 -116 256 -128 l27
-6 -44 82 c-43 83 -81 191 -106 301 -10 49 -16 58 -38 63 -154 35 -281 80
-362 128 l-57 34 10 -37z"/>
<path d="M3355 2865 c-70 -43 -227 -98 -366 -129 -22 -5 -28 -14 -38 -63 -25
-110 -63 -218 -107 -302 l-44 -83 28 6 c48 12 194 86 257 131 117 83 221 214
283 358 43 99 41 115 -13 82z"/>
<path d="M550 2845 c-19 -23 -24 -124 -8 -155 10 -18 22 -25 43 -25 21 0 33 7
42 25 16 32 16 108 0 140 -15 30 -58 38 -77 15z"/>
<path d="M4550 2745 c-19 -23 -24 -124 -8 -155 10 -18 22 -25 43 -25 21 0 33
7 42 25 16 32 16 108 0 140 -15 30 -58 38 -77 15z"/>
<path d="M2316 2712 c-3 -2 7 -45 20 -95 50 -187 147 -337 227 -352 75 -14
141 43 207 180 35 72 94 258 85 267 -3 2 -37 1 -77 -3 -40 -4 -127 -8 -193 -8
-66 0 -153 4 -193 8 -40 4 -74 5 -76 3z"/>
<path d="M252 2548 c-15 -15 -15 -61 0 -76 7 -7 41 -12 83 -12 78 0 95 9 95
50 0 41 -17 50 -95 50 -42 0 -76 -5 -83 -12z"/>
<path d="M664 2539 c-17 -19 -17 -23 -3 -47 13 -25 21 -27 82 -30 81 -4 107 8
107 48 0 39 -23 50 -103 50 -52 0 -67 -4 -83 -21z"/>
<path d="M4252 2448 c-7 -7 -12 -24 -12 -38 0 -41 17 -50 95 -50 78 0 95 9 95
50 0 41 -17 50 -95 50 -42 0 -76 -5 -83 -12z"/>
<path d="M4752 2448 c-7 -7 -12 -24 -12 -38 0 -41 17 -50 95 -50 78 0 95 9 95
50 0 41 -17 50 -95 50 -42 0 -76 -5 -83 -12z"/>
<path d="M1344 2401 c-56 -24 -72 -109 -30 -158 20 -23 32 -28 71 -28 60 0 95
35 95 95 0 70 -72 118 -136 91z"/>
<path d="M550 2345 c-19 -23 -24 -124 -8 -155 19 -35 67 -35 85 0 16 32 16
108 0 140 -15 30 -58 38 -77 15z"/>
<path d="M4550 2245 c-19 -23 -24 -124 -8 -155 10 -18 22 -25 43 -25 21 0 33
7 42 25 16 32 16 108 0 140 -15 30 -58 38 -77 15z"/>
<path d="M811 1728 c-5 -18 -33 -106 -60 -194 -28 -89 -51 -164 -51 -168 0 -3
144 -6 320 -6 l320 0 0 200 0 200 -259 0 -259 0 -11 -32z"/>
<path d="M1430 1560 l0 -200 255 0 255 0 0 200 0 200 -255 0 -255 0 0 -200z"/>
<path d="M2030 1560 l0 -200 255 0 255 0 0 200 0 200 -255 0 -255 0 0 -200z"/>
<path d="M2630 1560 l0 -200 255 0 255 0 0 200 0 200 -255 0 -255 0 0 -200z"/>
<path d="M3230 1560 l0 -200 255 0 255 0 0 200 0 200 -255 0 -255 0 0 -200z"/>
<path d="M3830 1560 l0 -200 320 0 c176 0 320 3 320 6 0 4 -23 79 -51 168 -27
88 -55 176 -60 194 l-11 32 -259 0 -259 0 0 -200z"/>
<path d="M244 1701 c-56 -24 -72 -109 -30 -158 20 -23 32 -28 71 -28 60 0 95
35 95 95 0 70 -72 118 -136 91z"/>
<path d="M592 1023 c-41 -130 -76 -242 -79 -250 -4 -11 69 -13 411 -13 l416 0
0 250 0 250 -337 0 -338 0 -73 -237z"/>
<path d="M1430 1010 l0 -250 255 0 255 0 0 250 0 250 -255 0 -255 0 0 -250z"/>
<path d="M2030 1010 l0 -250 255 0 255 0 0 250 0 250 -255 0 -255 0 0 -250z"/>
<path d="M2630 1010 l0 -250 255 0 255 0 0 250 0 250 -255 0 -255 0 0 -250z"/>
<path d="M3230 1010 l0 -250 255 0 255 0 0 250 0 250 -255 0 -255 0 0 -250z"/>
<path d="M3830 1010 l0 -250 416 0 c342 0 415 2 411 13 -3 8 -38 120 -79 250
l-73 237 -337 0 -338 0 0 -250z"/>
<path d="M475 648 c-3 -7 -31 -97 -64 -200 l-58 -188 493 0 494 0 0 200 0 200
-430 0 c-335 0 -432 -3 -435 -12z"/>
<path d="M1430 460 l0 -200 255 0 255 0 0 200 0 200 -255 0 -255 0 0 -200z"/>
<path d="M2030 460 l0 -200 255 0 255 0 0 200 0 200 -255 0 -255 0 0 -200z"/>
<path d="M2630 460 l0 -200 255 0 255 0 0 200 0 200 -255 0 -255 0 0 -200z"/>
<path d="M3230 460 l0 -200 255 0 255 0 0 200 0 200 -255 0 -255 0 0 -200z"/>
<path d="M3830 460 l0 -200 494 0 493 0 -62 198 -62 197 -431 3 -432 2 0 -200z"/>
</g>
</svg>
