<?xml version="1.0" standalone="no"?>
<!DOCTYPE svg PUBLIC "-//W3C//DTD SVG 20010904//EN"
 "http://www.w3.org/TR/2001/REC-SVG-20010904/DTD/svg10.dtd">
<svg version="1.0" xmlns="http://www.w3.org/2000/svg"
 width="512.000000pt" height="512.000000pt" viewBox="0 0 512.000000 512.000000"
 preserveAspectRatio="xMidYMid meet">

<g transform="translate(0.000000,512.000000) scale(0.100000,-0.100000)"
fill="#000000" stroke="none">
<path d="M2135 5106 c-37 -16 -64 -55 -72 -102 -6 -39 -9 -39 48 -19 64 23
174 29 257 15 86 -14 209 -72 272 -127 l45 -39 494 -117 c318 -75 500 -122
512 -133 40 -36 12 -104 -44 -104 -14 0 -208 43 -430 95 -223 52 -409 95 -414
95 -6 0 -1 -26 9 -57 11 -31 22 -87 25 -123 l6 -67 164 -39 c210 -49 205 -43
169 -190 -14 -58 -30 -112 -37 -120 -17 -21 -48 -18 -225 24 l-161 39 -36 -48
-36 -48 49 -36 c54 -39 123 -136 141 -194 l11 -37 411 -97 c227 -53 423 -97
437 -97 31 0 85 32 100 60 17 32 220 900 220 943 0 51 -22 91 -62 110 -36 16
-1771 427 -1803 427 -11 -1 -34 -7 -50 -14z m1535 -772 c111 -60 162 -184 127
-305 -52 -175 -264 -246 -409 -136 -174 133 -126 402 83 466 56 17 141 6 199
-25z"/>
<path d="M2161 4864 c-119 -32 -232 -126 -284 -237 -124 -261 35 -565 325
-618 217 -40 435 105 493 326 82 317 -218 614 -534 529z"/>
<path d="M1685 4091 c-42 -10 -66 -25 -96 -58 -14 -15 -133 -200 -263 -409
-203 -327 -237 -389 -242 -430 -5 -43 9 -97 124 -456 72 -224 138 -418 149
-431 44 -60 125 -88 208 -73 69 13 144 106 145 181 0 17 -49 188 -111 380
l-111 350 143 230 c78 127 146 234 151 240 5 5 -26 -91 -68 -213 l-77 -223
113 -353 c107 -335 112 -357 108 -423 -7 -135 -94 -258 -214 -303 -30 -11 -64
-20 -74 -20 -13 0 -20 -7 -19 -17 0 -10 8 -173 18 -363 l18 -345 -244 -525
c-232 -502 -243 -528 -243 -585 1 -172 159 -285 323 -229 94 32 99 41 381 647
142 307 262 574 266 594 7 29 -6 364 -33 851 l-3 63 50 -3 51 -3 133 -395 132
-395 50 -570 c55 -630 54 -624 80 -675 42 -81 116 -124 215 -125 59 0 78 4
118 28 26 16 61 46 76 67 56 78 56 70 -4 752 l-54 623 -109 326 -109 326 38
573 c21 315 40 574 41 576 2 1 79 -38 172 -88 151 -82 173 -91 221 -91 93 0
121 24 252 217 63 93 111 172 106 176 -4 4 -93 28 -198 53 -189 45 -190 45
-206 25 -9 -12 -20 -19 -25 -17 -5 2 -75 39 -155 83 l-146 78 -17 53 c-20 65
-81 136 -140 165 -43 20 -46 20 -77 4 -208 -107 -455 -73 -647 90 -41 35 -80
58 -107 65 -48 12 -47 12 -90 2z"/>
</g>
</svg>
