<?xml version="1.0" standalone="no"?>
<!DOCTYPE svg PUBLIC "-//W3C//DTD SVG 20010904//EN"
 "http://www.w3.org/TR/2001/REC-SVG-20010904/DTD/svg10.dtd">
<svg version="1.0" xmlns="http://www.w3.org/2000/svg"
 width="587.000000pt" height="586.000000pt" viewBox="0 0 587.000000 586.000000"
 preserveAspectRatio="xMidYMid meet">

<g transform="translate(0.000000,586.000000) scale(0.100000,-0.100000)"
fill="#000000" stroke="none">
<path d="M2725 5564 c-388 -38 -670 -115 -971 -264 -256 -126 -466 -274 -668
-470 -420 -407 -686 -932 -772 -1525 -25 -168 -25 -534 -1 -700 43 -288 124
-551 246 -800 387 -786 1117 -1313 1996 -1441 182 -27 544 -25 730 4 583 91
1093 353 1495 768 388 401 625 880 712 1439 29 187 31 549 5 730 -58 391 -200
770 -404 1080 -415 628 -1065 1044 -1807 1156 -125 19 -463 33 -561 23z m-5
-1629 c349 -202 714 -414 810 -470 96 -55 333 -193 527 -305 298 -173 350
-205 335 -215 -9 -7 -377 -220 -817 -475 -1090 -631 -1484 -859 -1522 -882
l-33 -20 0 1387 0 1387 33 -20 c17 -11 318 -185 667 -387z"/>
</g>
</svg>
