<?xml version="1.0" standalone="no"?>
<!DOCTYPE svg PUBLIC "-//W3C//DTD SVG 20010904//EN"
 "http://www.w3.org/TR/2001/REC-SVG-20010904/DTD/svg10.dtd">
<svg version="1.0" xmlns="http://www.w3.org/2000/svg"
 width="512.000000pt" height="512.000000pt" viewBox="0 0 512.000000 512.000000"
 preserveAspectRatio="xMidYMid meet">

<g transform="translate(0.000000,512.000000) scale(0.100000,-0.100000)"
fill="#000000" stroke="none">
<path d="M3580 5109 c-99 -16 -204 -77 -318 -184 l-102 -97 -44 40 c-41 38
-95 62 -142 62 -36 0 -118 -49 -143 -85 -13 -19 -26 -55 -28 -79 -10 -81 8
-109 166 -269 80 -82 158 -155 173 -163 36 -19 108 -18 138 2 14 9 99 90 190
179 104 102 175 165 192 169 39 9 94 -17 112 -53 20 -37 20 -64 2 -99 -18 -33
-172 -185 -444 -437 l-203 -188 -47 45 c-63 61 -104 81 -169 80 -63 0 -103
-21 -146 -74 -61 -76 -45 -186 38 -268 25 -24 45 -49 45 -55 0 -13 -102 -115
-114 -115 -5 0 -31 21 -58 46 -26 25 -64 52 -83 60 -101 42 -225 -19 -255
-124 -21 -76 -4 -129 66 -202 l53 -56 -67 -67 -68 -67 -39 41 c-56 57 -108 82
-172 81 -63 0 -103 -21 -146 -74 -61 -76 -45 -186 38 -268 25 -24 45 -49 45
-55 0 -12 -102 -115 -114 -115 -4 0 -33 22 -63 50 -77 71 -150 87 -228 51 -50
-22 -91 -69 -105 -119 -21 -77 -4 -129 68 -204 l56 -59 -330 -332 c-336 -337
-375 -384 -446 -529 -79 -162 -113 -330 -105 -523 12 -282 114 -520 310 -722
163 -168 372 -277 606 -317 233 -40 462 -2 683 111 104 53 177 108 317 237
240 221 490 346 801 401 l75 13 73 -40 c46 -25 72 -35 72 -26 0 22 -249 1480
-254 1485 -15 15 -339 -108 -541 -206 -346 -167 -629 -364 -951 -662 -85 -79
-123 -99 -189 -99 -60 0 -103 19 -142 63 -57 65 -68 164 -25 228 9 15 546 602
1193 1305 647 704 1209 1317 1248 1364 117 137 161 245 161 390 0 148 -53 275
-159 381 -127 127 -293 178 -481 148z"/>
<path d="M3798 2344 c-26 -8 -49 -18 -52 -23 -3 -5 62 -400 144 -879 83 -479
150 -876 150 -882 0 -9 23 -11 78 -9 65 3 85 9 120 32 61 40 95 97 100 165 4
68 -228 1445 -252 1489 -21 40 -75 90 -118 107 -46 19 -108 19 -170 0z"/>
</g>
</svg>
