<?xml version="1.0" standalone="no"?>
<!DOCTYPE svg PUBLIC "-//W3C//DTD SVG 20010904//EN"
 "http://www.w3.org/TR/2001/REC-SVG-20010904/DTD/svg10.dtd">
<svg version="1.0" xmlns="http://www.w3.org/2000/svg"
 width="512.000000pt" height="512.000000pt" viewBox="0 0 512.000000 512.000000"
 preserveAspectRatio="xMidYMid meet">

<g transform="translate(0.000000,512.000000) scale(0.100000,-0.100000)"
fill="#000000" stroke="none">
<path d="M3460 5107 c-49 -16 -123 -93 -138 -143 -9 -31 -12 -274 -12 -1003
l0 -961 225 0 225 0 0 961 c0 729 -3 972 -12 1003 -8 25 -31 59 -58 86 -65 65
-143 84 -230 57z"/>
<path d="M1210 4487 c-51 -16 -123 -93 -139 -147 -9 -35 -11 -328 -8 -1355 4
-1416 1 -1349 57 -1592 76 -329 238 -647 468 -916 l67 -79 5 -151 c4 -137 7
-155 27 -183 48 -67 8 -64 873 -64 865 0 825 -3 873 64 20 28 23 46 27 183 l5
151 67 79 c245 287 414 633 483 990 41 209 62 723 35 864 -34 180 -179 325
-359 359 -32 6 -249 10 -533 10 -462 0 -480 -1 -519 -20 -28 -15 -46 -34 -61
-65 -20 -41 -21 -51 -11 -119 28 -197 171 -350 362 -386 30 -5 134 -10 233
-10 208 0 242 -10 278 -80 25 -50 25 -90 0 -141 -26 -49 -76 -73 -182 -87
-197 -25 -351 -168 -388 -361 -5 -30 -10 -134 -10 -233 0 -159 -2 -183 -20
-218 -23 -45 -80 -80 -130 -80 -51 0 -107 35 -131 82 -20 39 -21 52 -17 272 4
206 7 239 28 301 29 89 61 154 116 232 l45 62 -63 32 c-132 66 -228 149 -304
263 -20 31 -40 55 -43 53 -155 -84 -268 -110 -389 -88 -158 28 -307 136 -376
273 -67 133 -66 118 -66 1067 0 643 -3 864 -12 895 -8 25 -31 59 -58 86 -65
65 -143 84 -230 57z"/>
<path d="M2710 3887 c-49 -16 -123 -93 -138 -143 -8 -29 -12 -148 -12 -406 l0
-365 58 13 c36 9 119 14 225 14 l167 0 0 351 c0 248 -4 364 -12 393 -8 25 -31
59 -58 86 -65 65 -143 84 -230 57z"/>
<path d="M1960 3587 c-49 -16 -123 -93 -138 -143 -17 -58 -17 -830 0 -888 24
-81 126 -156 213 -156 87 0 189 75 213 156 17 58 17 830 0 888 -8 25 -31 59
-58 86 -65 65 -143 84 -230 57z"/>
</g>
</svg>
