<?xml version="1.0" standalone="no"?>
<!DOCTYPE svg PUBLIC "-//W3C//DTD SVG 20010904//EN"
 "http://www.w3.org/TR/2001/REC-SVG-20010904/DTD/svg10.dtd">
<svg version="1.0" xmlns="http://www.w3.org/2000/svg"
 width="512.000000pt" height="512.000000pt" viewBox="0 0 512.000000 512.000000"
 preserveAspectRatio="xMidYMid meet">

<g transform="translate(0.000000,512.000000) scale(0.100000,-0.100000)"
fill="#000000" stroke="none">
<path d="M1647 4646 c-497 -154 -664 -209 -683 -227 -53 -49 -54 -56 -54 -370
0 -256 -2 -290 -15 -285 -8 3 -44 10 -79 17 -230 40 -482 -130 -535 -362 -37
-160 13 -334 128 -450 180 -180 469 -188 655 -18 63 58 108 124 139 206 21 56
22 75 27 542 l5 484 465 143 c256 79 471 144 478 144 9 0 12 -56 12 -246 l0
-246 -32 6 c-219 45 -415 -28 -527 -195 -161 -241 -74 -571 182 -697 263 -130
567 -2 669 279 l23 64 0 650 c0 638 0 651 -21 685 -30 52 -78 80 -133 79 -30
0 -269 -69 -704 -203z"/>
<path d="M3580 3810 c-496 -46 -911 -429 -996 -922 l-15 -90 -622 -719 c-342
-396 -639 -747 -660 -781 -21 -35 -50 -99 -64 -143 -23 -70 -27 -96 -27 -210
0 -114 4 -140 27 -210 61 -186 216 -364 394 -453 237 -120 546 -89 744 76 43
35 142 124 988 884 371 334 377 338 419 338 24 0 88 9 141 20 716 146 1101
920 785 1579 -202 424 -644 674 -1114 631z m-921 -1555 c114 -269 341 -491
611 -599 l45 -18 -26 -21 c-15 -12 -277 -247 -583 -522 -389 -350 -573 -509
-614 -530 -53 -28 -65 -30 -162 -30 -95 0 -110 3 -163 28 -82 41 -181 141
-220 225 -29 60 -32 77 -32 157 0 149 -12 132 580 816 477 552 520 599 529
577 5 -12 21 -50 35 -83z"/>
<path d="M2616 1855 c-29 -10 -89 -63 -219 -192 -98 -98 -185 -191 -194 -207
-21 -40 -13 -123 15 -163 41 -57 139 -81 200 -49 15 8 109 97 209 198 197 199
212 222 193 302 -8 36 -48 89 -80 106 -32 16 -86 19 -124 5z"/>
</g>
</svg>
