<?xml version="1.0" standalone="no"?>
<!DOCTYPE svg PUBLIC "-//W3C//DTD SVG 20010904//EN"
 "http://www.w3.org/TR/2001/REC-SVG-20010904/DTD/svg10.dtd">
<svg version="1.0" xmlns="http://www.w3.org/2000/svg"
 width="512.000000pt" height="512.000000pt" viewBox="0 0 512.000000 512.000000"
 preserveAspectRatio="xMidYMid meet">

<g transform="translate(0.000000,512.000000) scale(0.100000,-0.100000)"
fill="#000000" stroke="none">
<path d="M1317 4880 l-47 -69 32 -24 c18 -13 190 -135 381 -271 l349 -247 144
3 144 3 -466 330 c-256 182 -471 333 -478 336 -6 4 -30 -21 -59 -61z"/>
<path d="M233 4093 c-13 -2 -32 -16 -43 -30 -20 -25 -20 -39 -20 -650 l0 -625
29 -29 c26 -25 37 -29 85 -29 l56 0 0 685 0 685 -42 -1 c-24 -1 -53 -4 -65 -6z"/>
<path d="M517 4093 c-4 -3 -7 -62 -7 -130 l0 -123 2050 0 2051 0 -3 128 -3
127 -2041 3 c-1122 1 -2044 -1 -2047 -5z"/>
<path d="M4780 3416 l0 -686 56 0 c48 0 59 4 85 29 l29 29 0 626 0 625 -23 26
c-18 22 -34 27 -85 32 l-62 6 0 -687z"/>
<path d="M510 3370 l0 -300 84 0 83 0 6 78 c8 118 56 196 152 242 38 18 62 20
264 20 144 0 238 -4 263 -12 54 -16 132 -88 153 -140 9 -24 19 -76 22 -115 l6
-73 83 0 84 0 0 73 c0 118 51 201 150 246 41 19 65 21 276 21 228 0 231 0 282
-26 94 -47 142 -132 142 -251 l0 -63 432 0 c264 0 428 4 422 9 -5 5 -193 140
-419 300 l-410 291 -1037 0 -1038 0 0 -300z"/>
<path d="M2896 3660 c5 -5 194 -140 419 -299 l410 -291 145 0 c88 0 140 4 135
9 -6 5 -194 140 -420 300 l-410 291 -144 0 c-92 0 -142 -3 -135 -10z"/>
<path d="M3486 3660 c5 -5 194 -140 419 -299 l410 -291 148 0 147 0 0 300 0
300 -567 0 c-360 0 -564 -3 -557 -10z"/>
<path d="M880 3215 c-18 -19 -25 -40 -28 -85 l-4 -60 258 2 259 3 -1 59 c-1
52 -5 63 -28 83 -26 22 -33 23 -230 23 l-203 0 -23 -25z"/>
<path d="M1905 3215 c-21 -20 -25 -34 -25 -85 l0 -60 255 0 255 0 0 50 c0 55
-20 104 -45 114 -9 3 -106 6 -216 6 -199 0 -200 0 -224 -25z"/>
<path d="M512 1730 l3 -1169 23 -23 23 -23 1999 0 1999 0 23 23 23 23 3 1169
2 1170 -2050 0 -2050 0 2 -1170z m1904 888 c29 -15 66 -44 83 -65 62 -75 62
-72 59 -694 -3 -557 -3 -565 -25 -605 -27 -50 -75 -97 -122 -121 -34 -17 -85
-18 -791 -18 l-755 0 -41 22 c-22 12 -57 40 -77 62 -66 73 -67 82 -67 670 0
289 3 543 6 564 16 96 106 186 204 206 25 5 367 9 760 8 l715 -2 51 -27z
m1927 8 c22 -11 51 -37 65 -59 27 -40 27 -41 30 -271 4 -276 1 -305 -40 -352
-60 -68 -12 -64 -815 -64 l-728 0 -39 23 c-25 14 -48 39 -63 66 -22 43 -23 52
-23 290 0 236 1 249 23 291 25 50 59 78 108 90 19 5 351 8 739 7 672 -2 707
-3 743 -21z m-893 -929 c52 -26 62 -95 20 -137 -19 -19 -35 -20 -353 -20 -370
0 -370 0 -383 65 -7 40 14 81 49 95 36 15 637 12 667 -3z m939 -2 c33 -16 56
-64 46 -95 -4 -11 -16 -30 -28 -40 -20 -19 -37 -20 -354 -20 l-334 0 -24 25
c-41 40 -26 113 29 135 11 5 160 9 329 9 251 1 313 -2 336 -14z m-939 -343
c65 -32 63 -119 -5 -147 -27 -12 -94 -15 -332 -15 -264 0 -302 2 -333 18 -20
10 -39 29 -44 45 -14 40 3 79 44 99 31 16 69 18 335 18 266 0 304 -2 335 -18z
m934 4 c75 -31 68 -133 -11 -156 -26 -8 -139 -10 -346 -8 l-309 3 -24 28 c-13
15 -24 41 -24 56 0 35 33 78 63 84 12 2 156 5 320 6 233 1 305 -2 331 -13z
m-914 -356 c27 -27 34 -64 18 -96 -25 -53 -36 -54 -386 -52 l-324 3 -25 29
c-20 24 -24 36 -19 65 11 72 8 71 382 71 319 0 335 -1 354 -20z m940 0 c28
-28 34 -63 16 -98 -26 -51 -44 -53 -390 -50 l-318 3 -24 28 c-31 37 -31 81 1
112 l24 25 336 0 c320 0 336 -1 355 -20z m-3159 -89 c16 -16 29 -39 29 -51 0
-29 -26 -76 -45 -84 -9 -3 -68 -6 -131 -6 -109 0 -116 1 -139 25 -37 36 -34
86 6 119 29 25 37 26 141 26 108 0 110 0 139 -29z m492 17 c53 -28 64 -92 22
-133 -23 -24 -30 -25 -142 -25 -123 1 -139 5 -161 47 -19 35 -14 63 17 94 29
28 32 29 136 29 62 0 115 -5 128 -12z m516 -3 c49 -25 57 -90 16 -130 -23 -24
-30 -25 -144 -25 l-119 0 -27 32 c-32 38 -29 81 11 116 23 20 35 22 130 22 73
0 114 -5 133 -15z"/>
<path d="M881 2451 c-11 -11 -23 -35 -26 -53 -3 -18 -5 -266 -3 -551 l3 -519
28 -24 28 -24 710 0 711 0 29 29 30 30 -3 546 -3 547 -24 19 c-22 18 -49 19
-742 19 -699 0 -720 -1 -738 -19z m1054 -176 c34 -33 34 -83 -1 -116 l-26 -24
-290 0 -290 0 -24 28 c-31 37 -31 81 1 112 l24 25 291 0 291 0 24 -25z m-550
-339 c97 -46 147 -125 147 -231 0 -109 -67 -204 -170 -239 -57 -20 -95 -20
-158 -1 -144 43 -220 214 -155 348 26 54 96 119 143 134 60 20 139 15 193 -11z
m666 10 c56 -20 103 -61 135 -118 25 -45 29 -64 28 -123 0 -78 -16 -119 -68
-173 -156 -166 -437 -55 -436 172 1 106 52 188 145 232 57 27 137 31 196 10z"/>
<path d="M1225 1768 c-48 -42 -28 -129 33 -143 41 -9 81 10 96 46 17 40 10 75
-22 99 -33 26 -75 25 -107 -2z"/>
<path d="M1905 1765 c-75 -74 31 -192 109 -122 40 34 43 77 11 115 -34 41 -84
44 -120 7z"/>
<path d="M2900 2260 l0 -210 85 0 85 0 0 90 c0 95 14 142 45 154 35 13 76 6
100 -19 23 -22 25 -31 25 -125 l0 -100 130 0 130 0 0 59 c0 54 3 62 31 85 40
34 74 33 110 -3 25 -26 29 -37 29 -85 l0 -56 130 0 130 0 0 103 c0 95 2 105
23 125 33 31 87 29 118 -4 21 -23 24 -36 27 -125 l4 -99 84 0 84 0 0 210 0
210 -685 0 -685 0 0 -210z"/>
<path d="M770 283 c1 -111 7 -113 345 -113 l277 0 29 29 c25 26 29 37 29 85
l0 56 -340 0 -340 0 0 -57z"/>
<path d="M3670 284 c0 -48 4 -59 29 -85 l29 -29 277 0 c338 0 344 2 345 113
l0 57 -340 0 -340 0 0 -56z"/>
</g>
</svg>
