<?xml version="1.0" standalone="no"?>
<!DOCTYPE svg PUBLIC "-//W3C//DTD SVG 20010904//EN"
 "http://www.w3.org/TR/2001/REC-SVG-20010904/DTD/svg10.dtd">
<svg version="1.0" xmlns="http://www.w3.org/2000/svg"
 width="512.000000pt" height="512.000000pt" viewBox="0 0 512.000000 512.000000"
 preserveAspectRatio="xMidYMid meet">

<g transform="translate(0.000000,512.000000) scale(0.100000,-0.100000)"
fill="#000000" stroke="none">
<path d="M1000 5048 c-25 -13 -55 -38 -67 -57 -23 -34 -23 -36 -23 -419 l0
-384 -22 7 c-13 4 -64 9 -114 12 -147 8 -264 -35 -365 -136 -91 -91 -139 -208
-139 -335 1 -141 41 -238 139 -337 152 -152 357 -187 549 -93 137 67 238 204
262 354 5 37 10 262 10 518 0 250 3 452 8 450 4 -1 52 -28 107 -58 85 -47 108
-55 152 -55 141 0 207 174 101 272 -41 38 -474 272 -515 278 -28 5 -49 0 -83
-17z"/>
<path d="M4470 4729 c-14 -5 -89 -73 -167 -151 l-141 -141 -47 41 c-27 24 -62
44 -82 48 -98 18 -186 -41 -194 -131 -5 -64 2 -86 45 -138 l44 -54 -528 -528
-528 -528 -13 44 c-8 28 -14 109 -14 219 -1 154 -4 181 -22 221 -49 109 -149
179 -257 179 -82 0 -130 -26 -214 -115 -114 -119 -202 -263 -266 -432 -28 -74
-66 -119 -109 -127 -12 -3 -60 -7 -107 -11 -195 -14 -369 -63 -575 -165 -174
-86 -315 -190 -453 -335 -199 -208 -331 -445 -402 -719 -153 -597 69 -1205
560 -1531 426 -283 986 -307 1474 -63 503 251 843 739 898 1291 16 159 23 169
153 222 137 56 236 110 325 176 167 125 223 203 223 309 0 108 -72 213 -181
263 -42 20 -62 22 -177 20 -124 -2 -275 11 -302 26 -8 4 172 191 517 536 l530
530 42 -42 c56 -53 77 -63 135 -63 90 0 153 63 153 153 0 58 -10 79 -63 134
l-41 43 141 142 c159 161 174 188 153 268 -10 38 -37 70 -178 212 -199 201
-247 230 -332 197z m60 -524 l-70 -70 -37 38 -38 37 70 70 69 70 38 -37 38
-37 -70 -71z m-330 -260 l34 -36 -565 -565 -565 -565 -38 37 -38 37 563 563
c310 310 566 564 570 564 3 0 20 -16 39 -35z m-2127 -1511 c93 -21 215 -78
296 -139 124 -94 227 -252 267 -410 27 -104 25 -285 -5 -390 -80 -287 -306
-511 -591 -586 -115 -30 -281 -30 -393 0 -218 58 -418 232 -501 437 -162 399
36 865 445 1041 41 18 105 39 140 47 89 20 254 20 342 0z"/>
<path d="M1800 2123 c-43 -8 -121 -43 -164 -72 -283 -196 -303 -591 -39 -772
224 -154 558 -56 686 200 156 311 -47 655 -380 650 -43 -1 -89 -4 -103 -6z"/>
</g>
</svg>
