<?xml version="1.0" standalone="no"?>
<!DOCTYPE svg PUBLIC "-//W3C//DTD SVG 20010904//EN"
 "http://www.w3.org/TR/2001/REC-SVG-20010904/DTD/svg10.dtd">
<svg version="1.0" xmlns="http://www.w3.org/2000/svg"
 width="512.000000pt" height="512.000000pt" viewBox="0 0 512.000000 512.000000"
 preserveAspectRatio="xMidYMid meet">

<g transform="translate(0.000000,512.000000) scale(0.100000,-0.100000)"
fill="#000000" stroke="none">
<path d="M1383 5109 c-35 -13 -58 -72 -78 -204 -7 -43 -273 -1301 -281 -1323
-3 -9 -17 -4 -49 18 -228 157 -516 154 -728 -8 -93 -71 -179 -206 -212 -333
-23 -88 -17 -251 13 -333 62 -170 195 -305 367 -373 62 -24 83 -27 190 -28
134 0 179 11 300 74 84 43 188 143 233 221 17 31 44 96 61 145 16 50 106 464
201 920 94 457 173 836 175 843 8 22 64 -15 142 -93 119 -121 181 -283 170
-447 -3 -43 -3 -78 -1 -78 2 0 65 -14 141 -30 96 -21 140 -27 147 -20 7 7 11
68 11 158 0 121 -4 162 -23 230 -57 211 -176 384 -344 499 -90 62 -128 81
-248 126 -107 39 -155 48 -187 36z"/>
<path d="M3003 5106 c-181 -46 -335 -205 -374 -385 -6 -30 -9 -97 -7 -150 3
-86 7 -104 41 -176 35 -73 55 -96 265 -308 125 -126 297 -295 382 -377 l155
-148 375 372 c309 305 381 382 407 432 145 275 18 611 -274 725 -45 18 -79 23
-153 23 -117 1 -184 -19 -286 -85 l-73 -48 -65 44 c-36 24 -91 53 -123 65 -72
27 -197 35 -270 16z"/>
<path d="M3035 2968 c-2 -7 -76 -353 -165 -768 -88 -415 -162 -759 -163 -763
-1 -5 -20 5 -41 22 -168 134 -430 159 -628 61 -302 -150 -420 -501 -272 -810
47 -99 160 -213 261 -264 216 -108 465 -82 655 68 67 54 149 165 179 245 11
31 107 460 213 953 106 494 195 900 198 903 4 5 1305 -267 1446 -302 12 -3 22
-12 22 -21 0 -19 -261 -1225 -266 -1231 -2 -2 -23 9 -47 26 -246 176 -569 150
-783 -62 -114 -114 -174 -259 -174 -420 0 -171 53 -298 175 -421 61 -61 98
-90 155 -118 136 -66 276 -82 414 -46 112 28 190 73 277 160 138 136 122 83
385 1298 125 579 224 1055 221 1058 -4 5 -2036 443 -2055 444 -1 0 -4 -6 -7
-12z"/>
</g>
</svg>
