<svg xmlns="http://www.w3.org/2000/svg" viewBox="0 0 212.39 312.85"><defs><style>.cls-1{fill:#8d33fa;}.cls-2{fill:#2fc8e6;}.cls-3{fill:#fff;}</style></defs><g id="레이어_2" data-name="레이어 2"><g id="레이어_1-2" data-name="레이어 1"><path class="cls-1" d="M140.32,11.34a32.39,32.39,0,0,1,22.21,9,31.34,31.34,0,0,1,9.66,22.86V155.5a31.34,31.34,0,0,1-9.66,22.86,32.44,32.44,0,0,1-22.21,9A31.33,31.33,0,0,1,124.49,183L27.24,126.9a31.81,31.81,0,0,1,0-55.09l97.25-56.15a31.32,31.32,0,0,1,15.83-4.32m0-11.34a42.8,42.8,0,0,0-21.5,5.84L21.57,62c-28.76,16.61-28.76,58.12,0,74.73l97.25,56.14a42.82,42.82,0,0,0,21.5,5.85c22.54,0,43.21-18,43.21-43.21V43.21C183.53,18,162.86,0,140.32,0Z"/><path class="cls-2" d="M72.07,11.34A31.32,31.32,0,0,1,87.9,15.66l97.25,56.15a31.81,31.81,0,0,1,0,55.09L87.9,183a31.33,31.33,0,0,1-15.83,4.33,32.44,32.44,0,0,1-22.21-9,31.35,31.35,0,0,1-9.67-22.86V43.21a31.39,31.39,0,0,1,9.67-22.87,32.43,32.43,0,0,1,22.21-9M72.07,0C49.53,0,28.86,18,28.86,43.21V155.5c0,25.18,20.67,43.21,43.21,43.21a42.82,42.82,0,0,0,21.5-5.85l97.25-56.14c28.76-16.61,28.76-58.12,0-74.73L93.57,5.84A42.8,42.8,0,0,0,72.07,0Z"/><path class="cls-2" d="M88.94,63.16a9.22,9.22,0,0,1,4.62,1.27L140.09,91.3a9.3,9.3,0,0,1,0,16.11L93.56,134.27a9.13,9.13,0,0,1-4.62,1.28,9.36,9.36,0,0,1-9.34-9.33V72.49a9.35,9.35,0,0,1,9.34-9.33m0-11.34A20.67,20.67,0,0,0,68.26,72.49v53.73a20.6,20.6,0,0,0,31,17.87l46.52-26.86a20.63,20.63,0,0,0,0-35.75L99.23,54.61a20.5,20.5,0,0,0-10.29-2.79Z"/><path class="cls-3" d="M32.22,274.47H24.38v-42H36.87L41.07,252a92.78,92.78,0,0,1,1.45,9.69h.12A90.9,90.9,0,0,1,43.87,252l4.2-19.49H60.5v42H52.66V261.26c0-8.35.17-16.69.67-25h-.11l-8.4,38.25H40.06l-8.23-38.25h-.28c.5,8.35.67,16.69.67,25Z"/><path class="cls-3" d="M67.61,250.11c.34-10.69,1.18-18.65,13.72-18.65s13.39,8,13.72,18.65v6c0,11.2-.84,19.38-13.72,19.38S67.61,267.3,67.61,256.1ZM75.68,260c0,3.48.27,9.13,5.65,9.13,5.6,0,5.66-5.77,5.66-9.8V248.6c0-3.36.16-10.81-5.66-10.81-6.16,0-5.65,7.34-5.65,10.59Z"/><path class="cls-3" d="M99.36,232.47h26.15v6.16h-9.12v35.84h-7.84V238.63H99.36Z"/><path class="cls-3" d="M149,232.47h7.84v29.29c0,9.3-3,13.72-13.27,13.72s-13.38-4.42-13.38-13.72V232.47h7.84v28.62c0,4,.28,8.06,5.6,8.06,5.09,0,5.37-4,5.37-8.06Z"/><path class="cls-3" d="M180.45,245.24c.06-3.75-.28-7.45-4.59-7.45-2.63,0-4.31,1.07-4.31,3.92,0,3.19,2,4.43,4.48,6a73.44,73.44,0,0,1,9.52,6.89,11,11,0,0,1,3.52,8.79c0,8-5.26,12.1-12.93,12.1-9.41,0-12.77-5.26-12.77-12.77v-3.08h7.84v2.47c-.17,4.08,1.06,7,4.93,7,3.3,0,4.87-1.73,4.87-4.93a6.36,6.36,0,0,0-3.14-5.54c-4.08-3.19-9.18-5.49-12.37-9.69a11.64,11.64,0,0,1-2-6.44c0-7.17,4-11.09,12.32-11.09,12.49,0,12.15,9.64,12.21,13.78Z"/><path class="cls-3" d="M33.54,301.3c.15-4.88.53-8.5,6.25-8.5,3.06,0,5.18.82,6,4.13a11.4,11.4,0,0,1,.18,2.32H42.39c0-1.93-.18-3.47-2.6-3.57-2.81,0-2.58,3.34-2.58,4.82v5.31c0,1.58.13,4.16,2.58,4.16,2,0,2.7-2.17,2.63-5.05H39.94v-2.81h6v10.28H43.21V310.2h-.05a3.63,3.63,0,0,1-3.37,2.65c-5.87,0-6.25-3.72-6.25-8.82Z"/><path class="cls-3" d="M53,304.15v8.24H49.41V293.26h6.76c3.08,0,5.43,1.07,5.43,4.59,0,2.09-.53,4.29-2.93,4.62v0c2.11.28,2.75,1.63,2.75,3.47,0,.79-.1,5.49.77,6.05v.35H58.26a19.12,19.12,0,0,1-.38-4.84c0-1.18,0-2.78-1.23-3.14a10.94,10.94,0,0,0-3-.26Zm0-2.8h2.8c1.18-.08,2.1-.85,2.1-2.76,0-2.14-.9-2.5-2.25-2.52H53Z"/><path class="cls-3" d="M64.87,301.3c.15-4.88.53-8.5,6.25-8.5s6.09,3.62,6.25,8.5V304c0,5.1-.39,8.82-6.25,8.82s-6.25-3.72-6.25-8.82Zm3.67,4.51c0,1.58.13,4.16,2.58,4.16s2.57-2.63,2.57-4.47v-4.89c0-1.53.08-4.93-2.57-4.93-2.81,0-2.58,3.34-2.58,4.82Z"/><path class="cls-3" d="M80.45,301.3c.16-4.88.54-8.5,6.25-8.5s6.1,3.62,6.25,8.5V304c0,5.1-.38,8.82-6.25,8.82s-6.25-3.72-6.25-8.82Zm3.68,4.51c0,1.58.12,4.16,2.57,4.16s2.58-2.63,2.58-4.47v-4.89c0-1.53.08-4.93-2.58-4.93s-2.57,3.34-2.57,4.82Z"/><path class="cls-3" d="M104.33,293.26h3.83L104,312.39H99.26L95,293.26h3.83l2.24,12.27c.21,1.07.33,2.17.44,3.27,0,.51.15,1,.15,1.58h0c0-.54.1-1.07.15-1.58.11-1.1.23-2.2.44-3.27Z"/><path class="cls-3" d="M110.3,312.39V293.26h10v2.81h-6.48v4.82h6v2.8h-6v5.9h6.48v2.8Z"/><path class="cls-3" d="M129.21,301.3c.15-4.88.53-8.5,6.25-8.5,3.06,0,5.18.82,6,4.13a11.4,11.4,0,0,1,.18,2.32h-3.57c-.05-1.93-.18-3.47-2.6-3.57-2.81,0-2.58,3.34-2.58,4.82v5.31c0,1.58.13,4.16,2.58,4.16,2,0,2.7-2.17,2.62-5.05h-2.47v-2.81h5.94v10.28h-2.67V310.2h-.06a3.61,3.61,0,0,1-3.36,2.65c-5.87,0-6.25-3.72-6.25-8.82Z"/><path class="cls-3" d="M143.62,312.39l4.57-19.13H153l4.34,19.13h-3.83l-.94-4.84h-4.19l-.94,4.84Zm5.33-7.65H152l-1-5.43c-.17-.9-.25-1.77-.35-2.66,0-.43-.08-.87-.13-1.27h-.05c0,.4-.1.84-.13,1.27-.1.89-.18,1.76-.36,2.66Z"/><path class="cls-3" d="M159.34,312.39V293.26h3.57v19.13Z"/><path class="cls-3" d="M175,293.26h3.57v19.13H174.8L172,305.58a66.59,66.59,0,0,1-2.55-7.6h-.05c.13,1.58.28,3.52.39,5.46s.17,3.83.17,5.36v3.59H166.4V293.26h3.7l2.78,7a62.31,62.31,0,0,1,2.55,7.61h0c-.12-1.74-.25-3.6-.35-5.44S175,298.72,175,297Z"/></g></g></svg>