<?xml version="1.0" standalone="no"?>
<!DOCTYPE svg PUBLIC "-//W3C//DTD SVG 20010904//EN"
 "http://www.w3.org/TR/2001/REC-SVG-20010904/DTD/svg10.dtd">
<svg version="1.0" xmlns="http://www.w3.org/2000/svg"
 width="848.000000pt" height="848.000000pt" viewBox="0 0 848.000000 848.000000"
 preserveAspectRatio="xMidYMid meet">
<metadata>
Created by potrace 1.14, written by Peter Selinger 2001-2017
</metadata>
<g transform="translate(0.000000,848.000000) scale(0.100000,-0.100000)"
fill="#000000" stroke="none">
<path d="M2718 8205 c-2 -2 -26 -6 -53 -10 -127 -14 -307 -60 -426 -108 -223
-91 -457 -248 -610 -412 -24 -26 -54 -58 -67 -71 -12 -12 -22 -28 -22 -34 0
-5 -4 -10 -9 -10 -5 0 -31 -33 -57 -72 -27 -40 -52 -75 -55 -78 -14 -11 -85
-147 -127 -240 -22 -51 -78 -214 -86 -251 -3 -13 -8 -35 -11 -49 -32 -134 -38
-207 -40 -580 l-3 -385 -48 -32 c-27 -18 -53 -32 -58 -32 -5 -1 -17 -7 -25
-15 -9 -7 -47 -31 -86 -51 -219 -119 -414 -279 -562 -460 -61 -75 -146 -209
-191 -303 -42 -85 -101 -232 -108 -266 -2 -10 -8 -33 -14 -50 -16 -51 -34
-141 -47 -241 -10 -73 -9 -370 1 -445 10 -75 52 -255 72 -310 8 -25 17 -49 18
-55 1 -5 10 -27 19 -49 9 -21 17 -40 17 -42 0 -6 74 -158 83 -169 4 -5 26 -39
48 -75 44 -69 111 -161 144 -196 59 -63 157 -161 177 -178 119 -96 246 -180
398 -263 14 -8 48 -28 75 -44 28 -17 58 -33 68 -36 9 -3 17 -13 17 -22 1 -9 2
-185 4 -391 2 -206 6 -384 9 -395 2 -11 8 -42 11 -68 32 -215 146 -512 252
-654 13 -17 24 -34 24 -37 0 -13 96 -131 167 -207 171 -181 375 -321 606 -418
70 -29 185 -67 226 -76 9 -2 39 -9 66 -15 177 -41 473 -48 650 -16 77 14 246
59 251 67 3 5 10 7 15 4 5 -4 19 1 31 9 12 9 29 16 37 16 16 0 217 97 241 116
8 6 38 24 65 39 28 14 68 37 90 51 22 13 47 27 55 31 8 4 42 23 75 43 33 20
87 52 120 70 33 18 68 38 77 44 17 10 57 -4 86 -32 7 -6 18 -12 24 -12 5 0 22
-8 36 -19 15 -10 47 -29 72 -43 25 -14 61 -34 80 -45 19 -11 51 -29 70 -39 19
-11 37 -21 40 -24 3 -3 16 -11 30 -19 14 -8 48 -27 75 -43 75 -42 225 -113
270 -128 22 -7 45 -15 50 -19 6 -3 15 -6 20 -8 6 -1 19 -4 30 -7 11 -3 54 -14
95 -25 141 -38 246 -49 430 -46 96 2 191 6 210 9 95 17 266 59 278 68 6 6 12
8 12 5 0 -16 270 102 304 131 10 10 20 15 23 13 3 -2 12 1 22 7 198 134 211
144 360 282 26 24 123 140 167 200 134 181 246 439 289 670 26 136 27 148 30
539 3 293 7 377 17 386 7 7 36 25 63 40 57 30 82 44 215 123 52 31 100 60 105
64 6 4 44 33 85 64 125 94 289 267 372 393 21 31 42 61 47 67 18 22 130 259
151 319 21 61 48 160 57 204 2 14 6 28 9 32 2 4 7 31 10 61 3 29 9 73 14 98 8
45 6 347 -3 410 -16 106 -24 142 -47 230 -11 41 -22 82 -24 90 -33 126 -192
422 -282 527 -11 12 -26 31 -35 43 -9 11 -36 41 -61 68 -135 141 -258 235
-468 355 -19 11 -48 28 -65 38 -16 10 -52 30 -80 44 -27 15 -56 33 -63 40 -11
10 -14 93 -17 396 -1 211 -6 398 -9 414 -9 46 -19 98 -22 120 -14 105 -106
364 -167 471 -19 33 -43 75 -53 94 -10 19 -25 39 -31 43 -7 4 -13 13 -13 18 0
11 -58 89 -75 101 -5 4 -7 8 -3 8 3 0 -6 13 -20 28 -15 15 -52 55 -83 87 -90
96 -136 135 -267 228 -28 20 -57 37 -62 37 -6 0 -10 4 -10 8 0 9 -259 141
-288 147 -9 2 -34 11 -54 19 -21 9 -38 14 -38 12 0 -3 -15 1 -34 9 -30 13 -61
21 -106 29 -8 2 -26 6 -40 10 -106 29 -457 43 -567 22 -18 -3 -45 -8 -60 -10
-56 -9 -98 -19 -117 -28 -13 -7 -16 -7 -12 1 4 6 -13 2 -38 -9 -26 -11 -46
-18 -46 -15 0 15 -331 -129 -370 -160 -8 -7 -37 -25 -65 -39 -27 -15 -57 -31
-65 -36 -45 -29 -273 -160 -276 -160 -3 0 -22 -11 -44 -25 -22 -14 -44 -25
-49 -25 -6 0 -48 22 -93 49 -239 140 -480 276 -542 306 -146 70 -283 111 -496
150 -39 7 -386 16 -392 10z m358 -465 c32 -6 68 -13 79 -14 109 -18 358 -132
535 -246 8 -5 33 -19 54 -31 l40 -21 -25 -19 c-13 -10 -30 -19 -36 -19 -7 0
-13 -4 -13 -8 0 -4 -24 -20 -52 -35 -29 -16 -74 -40 -99 -55 -92 -54 -164 -95
-186 -106 -13 -6 -23 -14 -23 -18 0 -5 -5 -8 -11 -8 -9 0 -99 -50 -179 -100
-14 -8 -78 -45 -175 -100 -22 -12 -77 -44 -123 -71 -45 -27 -87 -49 -92 -49
-6 0 -10 -4 -10 -10 0 -5 -4 -10 -10 -10 -5 0 -64 -32 -132 -71 -67 -40 -136
-80 -153 -89 -16 -10 -144 -83 -283 -164 -138 -80 -256 -146 -261 -146 -5 0
-11 -3 -13 -8 -2 -6 -112 -72 -198 -119 -14 -8 -38 -23 -55 -33 -16 -10 -35
-19 -41 -19 -7 -1 -10 70 -8 222 2 308 30 448 126 645 40 82 107 193 134 222
8 8 24 26 35 40 34 42 101 109 142 143 21 18 51 42 65 55 15 12 35 25 45 28 9
3 17 9 17 12 0 4 39 28 87 52 49 25 90 48 93 51 6 7 169 64 225 78 62 16 95
21 165 28 36 3 66 7 68 8 8 7 215 -5 268 -15z m2749 -5 c97 -20 87 -17 160
-40 33 -10 62 -19 65 -20 3 -1 18 -7 33 -13 16 -7 33 -12 38 -12 5 0 9 -4 9
-10 0 -5 7 -10 15 -10 23 0 177 -95 257 -159 94 -75 228 -217 228 -241 0 -6 4
-10 8 -10 10 0 92 -138 124 -210 28 -61 66 -167 74 -202 29 -136 36 -213 38
-416 3 -250 7 -239 -71 -186 -20 13 -42 24 -49 24 -8 0 -14 4 -14 9 0 5 -8 11
-17 14 -10 4 -36 17 -58 30 -40 25 -255 150 -330 192 -22 13 -96 56 -165 95
-69 40 -145 84 -170 98 -25 13 -49 28 -55 32 -5 4 -118 69 -250 145 -132 75
-251 144 -265 153 -14 9 -28 15 -32 14 -5 -1 -8 2 -8 8 0 6 -4 10 -10 10 -5 0
-39 18 -75 40 -36 22 -67 40 -69 40 -2 0 -43 24 -92 53 -49 29 -96 56 -104 60
-8 5 -24 13 -35 20 -11 7 -67 39 -125 72 -58 33 -106 63 -108 67 -2 4 -9 8
-15 8 -7 0 -23 9 -37 20 l-25 20 23 6 c12 4 22 10 22 15 0 5 4 9 9 9 5 0 71
37 147 81 177 104 334 168 479 195 130 24 326 24 450 -1z m-1501 -621 c134
-76 144 -82 336 -194 102 -59 201 -117 220 -128 19 -10 134 -77 255 -147 121
-70 245 -141 275 -158 30 -16 60 -34 67 -39 7 -5 27 -18 45 -27 51 -27 132
-73 143 -81 25 -19 206 -120 215 -120 5 0 10 -4 10 -10 0 -5 11 -12 25 -16 14
-3 25 -10 25 -15 0 -5 6 -9 14 -9 8 0 21 -6 28 -13 7 -6 31 -21 53 -32 22 -11
42 -23 45 -26 3 -3 12 -8 20 -12 8 -4 38 -20 65 -37 28 -17 70 -41 95 -55 25
-14 68 -39 95 -55 28 -17 62 -35 78 -41 15 -6 27 -14 27 -19 0 -4 8 -10 18
-14 9 -3 31 -13 47 -23 57 -34 120 -71 155 -91 102 -57 186 -106 190 -110 7
-5 7 -2792 0 -2801 -8 -11 -289 -171 -300 -171 -6 0 -10 -4 -10 -9 0 -5 -8
-11 -17 -14 -18 -6 -94 -48 -103 -57 -5 -5 -41 -26 -100 -57 -19 -10 -37 -21
-40 -24 -5 -5 -196 -115 -268 -154 -20 -11 -39 -23 -42 -26 -3 -3 -10 -8 -15
-10 -6 -2 -77 -42 -157 -89 -81 -47 -160 -92 -175 -100 -16 -8 -44 -25 -63
-37 -19 -11 -51 -30 -70 -41 -19 -11 -91 -52 -158 -91 -68 -39 -128 -71 -133
-71 -5 0 -9 -4 -9 -8 0 -4 -27 -21 -60 -37 -33 -17 -60 -33 -60 -37 0 -5 -5
-8 -11 -8 -6 0 -43 -20 -82 -44 -40 -24 -95 -55 -122 -70 -28 -15 -63 -36 -80
-47 -16 -10 -37 -22 -45 -26 -8 -4 -74 -41 -145 -83 -72 -42 -137 -79 -145
-83 -8 -4 -22 -11 -30 -17 -53 -34 -152 -90 -160 -90 -6 0 -10 -4 -10 -10 0
-5 -5 -10 -11 -10 -8 0 -467 261 -556 316 -13 8 -26 15 -30 15 -5 1 -19 9 -33
19 -14 10 -43 28 -65 40 -45 26 -71 41 -278 160 -81 47 -155 90 -165 95 -9 6
-53 31 -97 56 -44 26 -96 56 -115 67 -19 10 -75 43 -123 71 -49 28 -93 51 -98
51 -5 0 -9 4 -9 8 0 5 -16 14 -35 22 -19 8 -35 17 -35 21 0 4 -8 9 -17 12 -10
4 -38 18 -63 33 -230 135 -351 204 -360 204 -6 0 -13 7 -16 15 -4 8 -13 15
-20 15 -8 0 -31 11 -52 24 -20 13 -129 77 -242 141 -113 65 -212 124 -220 131
-13 11 -15 179 -15 1407 0 768 2 1397 5 1399 6 5 302 176 343 198 15 8 91 52
168 98 78 45 145 82 150 82 5 0 9 5 9 10 0 6 4 10 10 10 8 0 184 100 285 162
17 10 37 21 45 25 8 4 59 33 113 65 54 32 100 58 102 58 3 0 38 20 78 45 41
25 77 45 80 45 4 0 23 12 44 26 21 14 47 30 58 35 11 5 35 18 53 29 18 11 124
73 235 137 111 64 256 148 322 186 66 39 129 75 140 81 18 10 219 126 343 198
26 15 49 27 51 28 2 0 40 -21 85 -46z m3070 -1774 c6 0 121 -79 160 -109 28
-23 146 -139 182 -181 40 -46 137 -190 128 -190 -4 0 -1 -8 7 -17 55 -69 129
-296 146 -453 13 -111 7 -297 -12 -380 -3 -14 -8 -41 -11 -60 -3 -19 -10 -40
-15 -46 -5 -6 -6 -14 -3 -17 3 -3 2 -12 -2 -19 -5 -7 -9 -17 -10 -23 -4 -22
-60 -154 -87 -205 -54 -100 -130 -201 -216 -289 -83 -83 -190 -171 -209 -171
-5 0 -15 -6 -21 -14 -12 -15 -85 -56 -99 -56 -5 0 -8 2115 -3 2253 1 17 3 17
30 -2 16 -12 32 -21 35 -21z m-6240 -1095 c-1 -619 -4 -1128 -7 -1131 -6 -6
-104 50 -169 97 -72 51 -171 145 -228 214 -65 80 -144 195 -134 195 3 0 1 7
-6 15 -27 33 -104 222 -116 285 -3 14 -8 34 -11 45 -29 94 -35 400 -9 510 6
26 33 134 35 143 1 1 1 4 1 7 0 3 7 19 15 35 8 16 15 31 14 32 -1 4 20 58 39
98 18 39 102 182 111 190 4 3 22 25 41 50 39 52 146 159 208 210 50 40 192
129 207 130 7 0 10 -381 9 -1125z m554 -1986 c48 -29 101 -60 117 -69 17 -10
74 -43 127 -74 53 -31 101 -56 107 -56 5 0 11 -4 13 -8 3 -7 34 -26 131 -81
81 -46 109 -62 285 -164 101 -59 188 -107 193 -107 5 0 9 -4 9 -10 0 -5 4 -10
9 -10 5 0 36 -15 68 -34 32 -19 173 -100 313 -182 140 -81 271 -156 290 -167
19 -11 50 -28 68 -38 18 -10 38 -22 45 -27 7 -5 35 -22 62 -37 82 -45 235
-136 235 -140 0 -5 -161 -95 -170 -95 -5 0 -10 -3 -12 -7 -12 -27 -301 -163
-378 -179 -14 -3 -34 -8 -45 -11 -22 -7 -27 -9 -70 -17 -103 -20 -285 -25
-381 -11 -27 4 -58 9 -69 10 -53 8 -188 47 -255 75 -82 34 -203 99 -208 112
-2 4 -8 8 -13 8 -40 0 -309 254 -332 313 -3 9 -11 17 -17 17 -5 0 -10 5 -10
12 0 6 -6 19 -14 27 -24 28 -94 168 -121 243 -37 101 -53 166 -72 286 -6 42
-11 453 -6 465 6 11 9 10 101 -44z m5166 -175 c-1 -236 -13 -331 -60 -477 -43
-137 -136 -312 -210 -397 -81 -93 -112 -127 -133 -144 -14 -11 -35 -30 -48
-42 -13 -12 -50 -40 -81 -61 -31 -21 -60 -42 -64 -48 -5 -7 -8 -7 -8 0 0 6 -3
5 -8 -1 -6 -10 -107 -66 -122 -69 -3 0 -27 -11 -55 -24 -27 -12 -57 -24 -65
-26 -8 -2 -35 -10 -60 -18 -25 -9 -62 -18 -84 -21 -21 -4 -41 -8 -45 -10 -4
-3 -36 -8 -71 -12 -123 -14 -313 -7 -402 15 -21 5 -38 7 -38 4 0 -3 -6 -1 -13
5 -7 6 -28 14 -46 17 -19 3 -43 11 -55 17 -11 6 -23 11 -26 11 -17 -1 -192 82
-265 127 -27 17 -59 35 -70 40 -11 6 -42 24 -70 41 -27 16 -58 33 -68 36 -18
6 54 53 203 134 25 13 47 26 50 29 3 3 14 10 25 16 48 26 70 39 75 44 3 3 21
13 40 23 65 35 95 52 100 58 3 4 15 9 27 13 13 4 29 13 35 20 7 7 27 19 43 28
37 18 171 95 205 117 14 8 28 14 33 13 4 -1 7 2 7 7 0 5 9 12 19 16 10 3 63
32 117 65 55 33 105 60 112 60 6 0 12 3 12 8 0 4 26 21 58 37 31 17 59 33 62
36 3 3 56 34 118 70 62 35 134 77 160 92 26 15 56 32 67 37 11 6 27 14 35 20
16 11 217 127 290 168 57 31 208 121 235 138 11 7 25 12 30 10 6 -2 10 -83 9
-222z"/>
<path d="M3458 6135 c-1 -2 -23 -6 -48 -9 -89 -10 -243 -72 -324 -130 -197
-140 -326 -351 -354 -581 -8 -66 -7 -2284 1 -2355 20 -174 101 -341 231 -471
66 -67 106 -100 159 -130 145 -83 252 -112 412 -113 130 0 179 6 252 30 54 18
165 65 173 74 3 3 14 10 25 16 34 19 219 124 235 133 8 5 150 88 314 183 164
95 320 185 345 200 25 15 55 32 66 38 11 5 43 23 70 40 28 17 58 33 68 37 9 3
17 9 17 14 0 5 4 9 9 9 5 0 51 24 102 54 173 99 353 203 444 256 50 29 105 61
124 72 96 55 153 98 223 171 43 43 78 85 78 93 0 8 4 14 9 14 22 0 96 171 128
295 12 46 14 240 3 302 -41 235 -189 454 -387 570 -90 53 -151 88 -178 103
-44 25 -284 164 -325 189 -19 11 -42 24 -50 28 -8 4 -43 24 -78 45 -34 21 -67
38 -72 38 -6 0 -10 5 -10 10 0 6 -5 10 -11 10 -6 0 -45 20 -85 45 -41 24 -74
41 -74 37 0 -4 -4 -2 -8 4 -4 6 -144 90 -312 186 -168 97 -355 205 -416 240
-61 36 -117 68 -125 71 -8 4 -36 21 -64 37 -107 65 -211 111 -280 126 -11 2
-31 7 -45 10 -28 7 -236 15 -242 9z m188 -463 c22 -5 85 -34 139 -66 54 -31
102 -56 106 -56 5 0 9 -4 9 -10 0 -5 4 -10 9 -10 9 0 97 -48 158 -86 13 -8 25
-13 27 -12 2 2 12 -4 22 -13 11 -9 39 -28 64 -41 61 -34 84 -47 324 -187 115
-66 213 -121 218 -121 4 0 8 -5 8 -11 0 -5 4 -8 9 -4 5 3 12 1 15 -4 3 -5 56
-37 116 -71 60 -34 113 -66 116 -71 3 -5 10 -7 15 -4 5 4 9 2 9 -3 0 -5 8 -12
18 -15 9 -4 37 -18 62 -33 51 -30 103 -61 140 -81 14 -8 39 -23 55 -33 17 -10
48 -28 70 -40 154 -84 286 -170 325 -211 60 -64 95 -151 96 -244 1 -75 -6
-105 -39 -174 -23 -48 -105 -136 -141 -152 -11 -5 -39 -21 -61 -34 -22 -14
-51 -31 -65 -38 -14 -7 -68 -38 -122 -70 -53 -31 -101 -57 -107 -57 -6 0 -11
-4 -11 -8 0 -4 -19 -18 -42 -30 -24 -12 -70 -38 -103 -57 -33 -20 -68 -39 -77
-42 -10 -3 -18 -9 -18 -14 0 -5 -4 -9 -9 -9 -8 0 -143 -76 -364 -206 -60 -35
-112 -64 -117 -64 -5 0 -15 -6 -22 -13 -7 -7 -76 -48 -152 -92 -77 -44 -158
-91 -180 -104 -324 -188 -443 -253 -490 -269 -136 -46 -306 8 -396 125 -33 44
-74 123 -64 123 3 0 2 6 -2 12 -5 7 -9 22 -11 33 -6 48 -5 2235 2 2275 18 105
99 214 199 264 83 42 163 50 262 28z"/>
</g>
</svg>
